<?xml version="1.0" encoding="UTF-8"?> <svg xmlns="http://www.w3.org/2000/svg" id="a" viewBox="0 0 165.85 53"><defs><style>.b{fill:#a29b65;stroke:#a29b65;stroke-miterlimit:10;stroke-width:.5px;}.c{fill:#595959;}</style></defs><g><polygon class="b" points="38.23 20.93 29.77 29.39 31.48 31.1 38.23 24.34 46.04 32.15 29.77 48.35 27.41 48.35 22.22 43.17 20.52 44.88 26.36 50.78 30.82 50.78 49.45 32.15 38.23 20.93"></polygon><polygon class="b" points="27.47 44.15 30.49 44.15 41.97 32.61 37.25 27.88 35.48 29.59 38.56 32.61 29.44 41.73 28.46 41.73 24.65 37.86 29.44 33.07 27.74 31.36 22.95 36.15 18.62 31.82 27.74 22.77 28.65 22.77 30.75 24.87 32.46 23.09 29.64 20.34 26.75 20.34 15.2 31.82 21.24 37.86 19.08 40.02 11.14 32.15 27.41 15.88 29.77 15.88 34.56 20.67 36.27 18.96 30.82 13.45 26.36 13.45 7.73 32.15 19.08 43.5 22.95 39.56 27.47 44.15"></polygon><path class="b" d="M32.33,2.82h-7.48v7.81h7.41l.07-7.81h0Zm-2.03,5.84h-3.41v-3.81h3.41v3.81Z"></path></g><g><path class="c" d="M77,11.05c-.4,.1-.8,.1-1.1,.3-.3,.1-.7,.3-1,.5-.6,.3-1.1,.6-1.6,1-.5,.3-1,.7-1.4,1.1-.6,.4-1.1,.9-1.5,1.5-.5,.5-.9,1.1-1.3,1.7-.5,.7-.9,1.4-1.1,2.1l-.3,.9c-.1,.3-.1,.6-.1,1,0,.3,.1,.6,.2,.9,.1,.3,.2,.6,.4,.8,.2,.3,.5,.7,.8,1l1.5,1.8c.6,.7,1.1,1.3,1.5,2,1.2,1.8,1.6,3.8,1.4,5.9l-.3,1.8c-.1,.6-.4,1.1-.6,1.7-.5,.9-1.1,1.7-1.8,2.5-.7,.7-1.5,1.3-2.5,1.8l-1.5,.6c-.5,.2-1,.3-1.6,.5-1.2,.2-2.4,.2-3.6,0-.8-.1-1.6-.3-2.3-.6-1.4-.6-2.4-1.5-3.1-2.8-.3-.5-.4-1-.5-1.6-.1-.5-.1-1.1,0-1.6,0-.3,.1-.6,.1-.8s.1-.5,.1-.8c.3-1.6,.9-3,1.9-4.2,.4-.5,1-.9,1.5-1.3,.4-.3,.9-.4,1.4-.5s.9-.1,1.4,0c.3,.1,.5,.1,.8,.2s.5,.1,.7,.3c.3,.1,.5,.3,.7,.5,.2,.3,.2,.6-.1,.7-.2,.2-.4,.2-.6,.3-.5,.1-1,.3-1.3,.6-.4,.3-.7,.6-1,1-.8,1.1-1.4,2.3-1.6,3.7-.1,.5-.1,.9-.1,1.4s.1,.9,.2,1.4c.2,.6,.5,1.2,1,1.7,.5,.4,1.1,.6,1.7,.4,.8-.2,1.4-.4,2-.7,2-1.1,3.4-2.8,4.1-4.9,.2-.6,.2-1.2,.2-1.8v-1.2c0-.4-.1-.8-.2-1.2-.1-.6-.3-1.1-.5-1.5-.3-.6-.7-1.2-1.2-1.8-.3-.4-.6-.8-1-1.1-.3-.4-.7-.7-1-1.1-.3-.3-.5-.6-.8-.9s-.5-.6-.8-.9c-.4-.6-.7-1.1-.9-1.8-.1-.4-.1-.7-.1-1.1s.1-.8,.2-1.1c.2-.9,.7-1.8,1.3-2.6,.6-.8,1.3-1.6,2-2.3,.7-.7,1.5-1.3,2.4-1.9,.7-.5,1.4-.9,2.1-1.3,.7-.4,1.5-.7,2.3-1,.5-.2,1-.3,1.6-.5s1-.2,1.6-.2c.5,0,1,0,1.6,.1,.5,.1,1,.2,1.6,.4,.4,.1,.8,.3,1,.6,.6,.5,.9,1,.9,1.7v.8c-.1,.5-.3,1-.4,1.6-.1,.5-.3,1-.6,1.6-1.1,2.3-2.3,4.4-3.8,6.4-.1,.1-.2,.2-.2,.3l-.3,.3c-.3,.3-.6,.5-1.1,.6-.6,.1-1.2,0-1.8-.3q-.1-.1-.2-.1c-.1,0-.1-.1-.2-.1-.2-.2-.2-.4,0-.6l.2-.2c1-.7,1.8-1.5,2.5-2.4s1.2-1.9,1.7-3c.5-1.2,.8-2.5,.9-3.7,.1-.5,.1-.9,0-1.3,0-.1,0-.2-.1-.4,0-.1-.1-.1-.1-.1q-.3-.6-.3-.7Z"></path><path class="c" d="M92.9,25.05c.1-.2,.3-.3,.5-.3s.3,0,.5,.1c.1,.1,.2,.2,.3,.4,.1,.2,0,.3-.1,.5-.7,.9-1.3,1.8-2,2.7l-2.1,2.7c-.7,.9-1.5,1.7-2.3,2.6-.8,.8-1.7,1.6-2.6,2.2-.5,.4-1.1,.8-1.8,1.1-.7,.4-1.4,.6-2.2,.7h-.9c-.4,0-.9-.1-1.3-.2-.4-.1-.9-.3-1.3-.6-.5-.4-.9-.7-1.2-1.1s-.5-.9-.6-1.5c-.3-1.8-.1-3.6,.7-5.4,.6-1.4,1.4-2.7,2.4-3.9,.5-.6,1.1-1.1,1.8-1.6,.7-.4,1.4-.7,2.2-.8,.4-.1,.8-.1,1.2-.1s.8,.1,1.2,.2c.1,.1,.3,.1,.4,.2,.2,.1,.3,.1,.4,.2,.1,.1,.2,.1,.2,.1,.1,0,.1,.1,.2,.1,.1,.1,.3,.2,.4,.2,.1,.1,.2,.1,.4,.2,.9,.7,1.2,1.6,1,2.6,0,.2-.1,.4-.1,.5-.1,.2-.1,.3-.2,.5-.1,.1-.1,.3-.2,.4-.1,.1-.1,.2-.2,.4-.5,.8-1,1.4-1.5,1.9s-1.1,1.1-1.8,1.7c-.5,.4-1.1,.8-1.7,1.1-.6,.3-1.2,.5-1.8,.6-.1,0-.4,0-.7,.1h-.7c0,.3,0,.7,.1,1.2,.1,.4,.2,.8,.4,1s.5,.3,.9,.2c.4,0,.9-.2,1.4-.3,.5-.2,1-.4,1.5-.7,.5-.3,.9-.5,1.2-.7,1.6-1.3,3-2.8,4.3-4.4,1.2-1.4,2.5-3.1,3.7-4.8Zm-13.1,6.7c-.1,.1-.1,.2-.1,.4,.1-.1,.2-.1,.4-.2,.1-.1,.2-.1,.3-.2,.9-.6,1.8-1.4,2.4-2.3,.5-.7,.9-1.4,1.3-2.1,.3-.6,.6-1.4,.8-2.2v-.3c-.1,.1-.2,.1-.3,.2s-.2,.1-.3,.2c-.3,.2-.6,.4-.9,.7-.8,.8-1.4,1.5-1.9,2.2s-1,1.6-1.3,2.6c-.1,.2-.1,.4-.2,.5-.1,.2-.1,.4-.2,.5Z"></path><path class="c" d="M93.6,31.85c-.1,.2-.3,.4-.4,.7-.1,.3-.2,.6-.3,.7-.1,.3-.2,.6-.3,.8-.1,.3-.2,.5-.2,.8-.1,.4-.2,.8-.2,1.3-.1,.3,0,.6,.2,.7,.2,.2,.2,.3,0,.5-.1,.1-.2,.2-.3,.2-.8,.3-1.6,.3-2.4,0-.2-.1-.3-.2-.4-.3-.2-.2-.4-.5-.4-.8v-1.1c.1-.8,.2-1.8,.5-2.7,.2-1,.5-1.9,.8-2.7,.2-.6,.4-1.3,.6-1.9l.6-1.8v-.2l.9-2.1,.9-2.1,.1-.4c.3-.8,.7-1.7,1-2.5s.6-1.7,1-2.5c.1-.2,.2-.5,.3-.7,.1-.2,.2-.5,.3-.7,.1-.3,.2-.6,.3-.8,.1-.3,.2-.6,.2-.8,.1-.3,0-.5-.1-.6-.2-.3-.1-.5,.2-.6,.2-.1,.5-.2,.8-.3s.6-.1,.9-.1,.6,.1,.9,.1c.3,.1,.4,.2,.6,.2,.6,.3,.9,.9,.9,1.5v.5c0,.1-.1,.3-.1,.5-.1,.4-.3,.8-.4,1.2-.1,.4-.3,.8-.5,1.2l-.8,1.9-.8,1.9c-.1,.1-.1,.2-.2,.4-.3,.7-.6,1.3-.8,2-.3,.7-.6,1.3-.8,2-.1,.2-.2,.5-.3,.7-.1,.2-.2,.5-.3,.7-.1,.2-.1,.3-.1,.4,.1-.1,.1-.2,.2-.3,.6-.8,1.1-1.5,1.7-2.2,.5-.5,1-1,1.6-1.4,.9-.6,2-.6,3-.1,.3,.2,.6,.5,.7,.8,.2,.5,.2,1,.2,1.4-.1,.8-.4,1.5-.8,2.2-1.2,1.7-2.8,2.9-4.8,3.5-.3,.1-.5,.2-.7,.2-.2,.1-.5,.1-.7,.2,0,0-.1,.1-.2,.1l.1,.1,.1,.1c.1,.1,.3,.2,.4,.4,.1,.2,.3,.4,.4,.6s.2,.4,.4,.6l.3,.6c.2,.4,.5,.8,.7,1.2,.3,.4,.6,.7,.9,1l.2,.1c.2,.1,.3,.1,.4,.2s.2,.1,.2,.3c0,.1,0,.2-.2,.3q-.1,.1-.2,.1c-.1,0-.2,.1-.2,.1-1.1,.4-2.1,.4-3.2,0-.7-.3-1-.8-1.2-1.5-.1-.3-.1-.6-.1-.9s-.1-.6-.1-.9c0-.2-.1-.5-.2-.9s-.2-.7-.3-.9c-.3,.1-.3,0-.5-.2Zm5.6-7.5c-.3,.2-.7,.5-1.1,1s-.9,1-1.3,1.5-.8,1-1.1,1.5c-.3,.5-.5,.8-.6,1.1,.3-.2,.6-.4,.8-.6,.2-.3,.4-.5,.7-.8,.2-.3,.5-.5,.7-.8,.2-.2,.3-.4,.4-.6s.3-.4,.4-.6c.3-.4,.7-.9,.9-1.5,.1,.1,.1,0,.2-.2Z"></path><path class="c" d="M119.3,25.05c.1-.2,.3-.3,.5-.3s.3,0,.5,.1c.1,.1,.2,.2,.3,.4,.1,.2,0,.3-.1,.5-.7,.9-1.3,1.8-2,2.7l-2.1,2.7c-.7,.9-1.5,1.7-2.3,2.6-.8,.8-1.7,1.6-2.6,2.2-.5,.4-1.1,.8-1.8,1.1-.7,.4-1.4,.6-2.2,.7h-.8c-.4,0-.9-.1-1.3-.2s-.9-.3-1.3-.6c-.5-.4-.9-.7-1.2-1.1-.3-.4-.5-.9-.6-1.5-.3-1.8-.1-3.6,.7-5.4,.6-1.4,1.4-2.7,2.4-3.9,.5-.6,1.1-1.1,1.8-1.6,.7-.4,1.4-.7,2.2-.8,.4-.1,.8-.1,1.2-.1s.8,.1,1.2,.2c.1,.1,.3,.1,.4,.2,.2,.1,.3,.1,.4,.2s.2,.1,.2,.1c.1,0,.1,.1,.2,.1,.1,.1,.3,.2,.4,.2,.1,.1,.2,.1,.4,.2,.9,.7,1.2,1.6,1,2.6,0,.2-.1,.4-.1,.5-.1,.2-.1,.3-.2,.5-.1,.1-.1,.3-.2,.4s-.1,.2-.2,.4c-.5,.8-1,1.4-1.5,1.9s-1.1,1.1-1.8,1.7c-.5,.4-1.1,.8-1.7,1.1-.6,.3-1.2,.5-1.8,.6-.1,0-.4,0-.7,.1h-.7c0,.3,0,.7,.1,1.2,.1,.4,.2,.8,.4,1,.2,.2,.5,.3,.9,.2,.4,0,.9-.2,1.4-.3,.5-.2,1-.4,1.5-.7,.5-.3,.9-.5,1.2-.7,1.6-1.3,3-2.8,4.3-4.4,1.1-1.4,2.4-3.1,3.6-4.8Zm-13.1,6.7c-.1,.1-.1,.2-.1,.4,.1-.1,.2-.1,.4-.2,.1-.1,.2-.1,.3-.2,.9-.6,1.8-1.4,2.4-2.3,.5-.7,.9-1.4,1.3-2.1,.3-.6,.6-1.4,.8-2.2v-.3c-.1,.1-.2,.1-.3,.2-.1,.1-.2,.1-.3,.2-.3,.2-.6,.4-.9,.7-.8,.8-1.4,1.5-1.9,2.2s-1,1.6-1.3,2.6c-.1,.2-.1,.4-.2,.5-.1,.2-.1,.4-.2,.5Z"></path><path class="c" d="M127.2,26.35c0-.1,.1-.2,.2-.5s.2-.4,.2-.5c.1-.1,.2-.3,.2-.4,.1-.2,.1-.3,.2-.4,.1-.3,.3-.6,.6-.9,.2-.3,.5-.5,.7-.7s.4-.4,.7-.4c.2-.1,.5-.1,.8-.2,.4-.1,.8-.1,1.2,0,.4,0,.8,.1,1.1,.3,.3,.1,.5,.2,.6,.4,.3,.2,.4,.5,.3,.8v.2q0,.1-.1,.2c-.1,.2-.2,.5-.3,.7-.1,.2-.2,.5-.3,.7-.5,1-1,2.2-1.3,3.4-.4,1.4-.9,2.9-1.5,4.2l-1.5,4.2c-.1,.1-.1,.2-.1,.3v.3c.2,0,.4,.1,.6,.1s.4,.1,.6,.1c.4,.1,.9,.1,1.3,.2s.9,.2,1.3,.4c.5,.2,.9,.4,1.2,.7,.4,.3,.7,.6,.9,1,.2,.3,.2,.7,.2,1.1-.2,.8-.6,1.4-1.3,1.8-.3,.2-.7,.4-1,.4-.4,.1-.7,.1-1.1,.1-.6-.1-1.1-.2-1.5-.4-.1-.1-.2-.1-.3-.2-.1-.1-.2-.2-.3-.2-.3-.3-.3-.5,0-.8l.2-.2,.2-.2c.2-.2,.4-.5,.4-.7,.1-.3,0-.6-.2-.8-.1-.2-.2-.2-.3-.2-.2-.1-.5-.1-.7-.2s-.5-.1-.8-.1h-.2c-.1,.1-.1,.2-.2,.3-.2,.4-.4,.9-.5,1.3-.2,.4-.3,.8-.5,1.2-.7,1.8-1.6,3.4-2.6,4.8-.1,.2-.3,.4-.4,.6s-.3,.4-.5,.6c-.6,.7-1.3,1.2-2,1.7-.7,.4-1.5,.8-2.4,1.1-.4,.1-.8,.2-1.2,.2h-1.2c-.4-.1-.8-.1-1.2-.2l-1.2-.3c-.2-.1-.3-.1-.5-.2s-.3-.1-.4-.2c-.7-.4-1.2-.9-1.5-1.5-.3-.7-.4-1.4-.2-2.1,.1-.4,.2-.9,.4-1.4,.3-.7,.7-1.3,1.1-1.8s.9-1,1.5-1.5c.2-.2,.5-.4,.7-.6s.5-.4,.8-.5c.9-.5,1.8-1,2.7-1.4,.9-.4,1.9-.8,2.9-1.1,.2-.1,.5-.2,.7-.2,.2-.1,.5-.1,.7-.2q.1,0,.2-.1t.2-.1c.1-.2,.3-.7,.6-1.5,.3-.8,.5-1.6,.8-2.5,.2-.9,.5-1.7,.7-2.5s.3-1.3,.3-1.5c0,0-.2,.3-.5,.7-.3,.5-.7,1-1.1,1.6s-.8,1.1-1.2,1.7c-.4,.6-.6,.9-.8,1.1-.3,.3-.5,.5-.8,.7s-.6,.3-1,.5c-.9,.2-1.8,.2-2.7-.1-.7-.2-1.3-.6-1.7-1.4-.3-.5-.4-1.1-.5-1.7-.1-.3-.1-.5,0-.7,0-.2,.1-.5,.1-.7,.3-1.4,.7-2.6,1.3-3.9,.2-.5,.4-1,.7-1.5,.3-.6,.6-1.1,1-1.6s.8-1,1.2-1.4c.7-.7,1.6-1.2,2.6-1.3,.4-.1,.9-.1,1.4-.2,.5,0,.9,0,1.4,.1,.1,0,.2,0,.2,.1q.1,0,.2,.1c.3,.1,.5,.2,.6,.5,.1,.2,.2,.5,.4,.8,.1,.3,.2,.7,.4,1.2,0,.7,.1,1.1,.1,1.4Zm-4.4,14.6c-.3,.1-.6,.2-.8,.2-.2,.1-.5,.2-.7,.2-.8,.3-1.5,.6-2.2,1s-1.4,.8-2,1.3c-.6,.4-1.2,.9-1.6,1.4-.6,.6-1,1.3-1.3,2.1-.2,.4-.2,.9-.2,1.5,.1,.6,.3,1,.8,1.3s1,.3,1.6,0c1.1-.5,2-1.2,2.7-2.1,.6-.7,1.1-1.5,1.5-2.2s.7-1.4,1-2.1l.9-2.1c.1-.1,.1-.2,.1-.3,.1,0,.2-.1,.2-.2Zm-2.2-6.9c.2-.1,.4-.3,.6-.5s.3-.4,.5-.6l.5-.5c.2-.2,.4-.3,.6-.5l.5-.5c.2-.2,.4-.4,.5-.6,.2-.2,.3-.4,.5-.6,.1-.2,.3-.4,.5-.6s.3-.4,.5-.6,.3-.4,.5-.6c-.1-.2-.2-.5-.3-.7-.1-.2-.2-.5-.3-.7-.1-.2-.2-.5-.3-.7-.1-.2-.2-.5-.3-.7-.1-.1-.1-.2-.1-.3s-.1-.2-.2-.3l-.3,.3c-.3,.3-.5,.6-.7,1-.2,.3-.4,.7-.6,1.1s-.4,.9-.6,1.3-.4,.9-.6,1.3c-.2,.6-.4,1.2-.5,1.8-.1,.9-.3,1.5-.4,2.2Z"></path><path class="c" d="M148,35.75c.1-.1,.2-.1,.4-.2,.7-.5,1.3-1.2,2-1.9l1.5-1.8c.5-.6,.9-1.2,1.4-1.8,.3-.4,.6-.9,.9-1.3l.9-1.2,.6-.9,.6-.9c.1-.2,.3-.4,.5-.6,.3-.2,.6-.2,1-.2,.2,.1,.3,.2,.2,.4,0,.1-.1,.2-.2,.4-.8,1-1.5,2.1-2.3,3.1s-1.5,2.1-2.3,3.1c-.5,.7-1,1.4-1.5,2-.5,.7-1.1,1.3-1.7,1.9-.4,.4-.9,.9-1.4,1.2-.4,.3-.9,.4-1.6,.4-.6,0-1.2-.1-1.6-.4-.5-.3-.9-.8-1-1.4-.2-.9-.2-1.8,0-2.7,.1-.4,.1-.7,.2-1.1,.1-.3,.2-.7,.2-1.1v-.5c-.1,.1-.2,.2-.2,.3l-.2,.2c-.3,.5-.6,.9-1,1.4-.3,.5-.6,.9-1,1.4s-.7,.9-1.1,1.4c-.4,.4-.8,.9-1.2,1.3-.3,.3-.6,.5-1,.8-.4,.2-.7,.4-1.2,.5-.4,.1-.9,.1-1.3,.1s-.8-.1-1.2-.2c-.6-.2-1-.5-1.3-1.1-.4-.6-.7-1.3-.7-2.1s.1-1.7,.3-2.5c.2-.8,.5-1.5,.8-2.2s.6-1.4,1-2.1c.9-1.5,2-2.8,3.4-4,.8-.8,1.9-1.2,3.1-1.3,.7-.1,1.4,0,2.1,.1,.7,.2,1.3,.6,1.6,1.3,.1,.2,.2,.4,.4,.5l.3,.6,.2-.2c.1-.1,.1-.3,.2-.4s.1-.3,.2-.4c.2-.5,.6-.8,1.2-1.1,.8-.3,1.7-.4,2.6-.3,.2,0,.4,.1,.6,.1s.3,.1,.5,.2c.7,.3,.8,.7,.6,1.3-.1,.3-.2,.5-.3,.8-.1,.2-.2,.5-.4,.8-.3,.6-.6,1.3-.8,1.9-.3,.6-.5,1.3-.7,1.9l-1.2,3.4c-.1,.4-.3,.9-.4,1.4s-.3,.9-.4,1.4v.2c-.3-.1-.3,0-.3,.1Zm-9.4-1.3q.1-.1,0,0l.2-.2,1.1-1.1c.4-.4,.8-.7,1.1-1.1,.7-.8,1.4-1.6,2-2.4,.7-.8,1.3-1.6,2-2.5,.1-.1,.1-.2,.2-.2l.2-.2h0c-.7-.3-1.4-.8-1.8-1.5,0-.1-.1-.1-.1-.1,0,0-.1,0-.1-.1-.7,.6-1.3,1.3-1.8,2s-1,1.5-1.4,2.2c-.4,.8-.7,1.7-1,2.6-.2,.7-.4,1.7-.6,2.6Z"></path></g></svg> 